<svg width="16" height="16" viewBox="0 0 16 16" fill="none" xmlns="http://www.w3.org/2000/svg">
<path d="M1.5 0C1.20333 0 0.913319 0.107749 0.666645 0.309621C0.419972 0.511493 0.227713 0.798421 0.114181 1.13412C0.000649929 1.46982 -0.0290551 1.83922 0.0288228 2.1956C0.0867006 2.55197 0.229562 2.87933 0.439341 3.13626C0.649119 3.3932 0.916394 3.56817 1.20737 3.63906C1.49834 3.70995 1.79994 3.67356 2.07403 3.53451C2.34811 3.39546 2.58238 3.15999 2.74721 2.85786C2.91203 2.55574 3 2.20054 3 1.83718C3 1.34993 2.84197 0.882636 2.56066 0.538098C2.27936 0.19356 1.89783 0 1.5 0ZM1.5 6.12393C1.20333 6.12393 0.913319 6.23168 0.666645 6.43355C0.419972 6.63543 0.227713 6.92235 0.114181 7.25805C0.000649929 7.59376 -0.0290551 7.96315 0.0288228 8.31953C0.0867006 8.67591 0.229562 9.00326 0.439341 9.2602C0.649119 9.51713 0.916394 9.6921 1.20737 9.76299C1.49834 9.83388 1.79994 9.7975 2.07403 9.65845C2.34811 9.51939 2.58238 9.28392 2.74721 8.9818C2.91203 8.67967 3 8.32447 3 7.96111C3 7.47386 2.84197 7.00657 2.56066 6.66203C2.27936 6.31749 1.89783 6.12393 1.5 6.12393ZM1.5 12.2479C1.20333 12.2479 0.913319 12.3556 0.666645 12.5575C0.419972 12.7594 0.227713 13.0463 0.114181 13.382C0.000649929 13.7177 -0.0290551 14.0871 0.0288228 14.4435C0.0867006 14.7998 0.229562 15.1272 0.439341 15.3841C0.649119 15.6411 0.916394 15.816 1.20737 15.8869C1.49834 15.9578 1.79994 15.9214 2.07403 15.7824C2.34811 15.6433 2.58238 15.4079 2.74721 15.1057C2.91203 14.8036 3 14.4484 3 14.085C3 13.5978 2.84197 13.1305 2.56066 12.786C2.27936 12.4414 1.89783 12.2479 1.5 12.2479ZM15.5 12.8603H5.5C5.36739 12.8603 5.24022 12.9248 5.14645 13.0396C5.05268 13.1545 5 13.3102 5 13.4727V14.6974C5 14.8599 5.05268 15.0156 5.14645 15.1305C5.24022 15.2453 5.36739 15.3098 5.5 15.3098H15.5C15.6326 15.3098 15.7598 15.2453 15.8536 15.1305C15.9473 15.0156 16 14.8599 16 14.6974V13.4727C16 13.3102 15.9473 13.1545 15.8536 13.0396C15.7598 12.9248 15.6326 12.8603 15.5 12.8603ZM15.5 0.612393H5.5C5.36739 0.612393 5.24022 0.676913 5.14645 0.791759C5.05268 0.906605 5 1.06237 5 1.22479V2.44957C5 2.61199 5.05268 2.76775 5.14645 2.8826C5.24022 2.99745 5.36739 3.06197 5.5 3.06197H15.5C15.6326 3.06197 15.7598 2.99745 15.8536 2.8826C15.9473 2.76775 16 2.61199 16 2.44957V1.22479C16 1.06237 15.9473 0.906605 15.8536 0.791759C15.7598 0.676913 15.6326 0.612393 15.5 0.612393ZM15.5 6.73633H5.5C5.36739 6.73633 5.24022 6.80085 5.14645 6.91569C5.05268 7.03054 5 7.1863 5 7.34872V8.57351C5 8.73592 5.05268 8.89169 5.14645 9.00653C5.24022 9.12138 5.36739 9.1859 5.5 9.1859H15.5C15.6326 9.1859 15.7598 9.12138 15.8536 9.00653C15.9473 8.89169 16 8.73592 16 8.57351V7.34872C16 7.1863 15.9473 7.03054 15.8536 6.91569C15.7598 6.80085 15.6326 6.73633 15.5 6.73633Z" fill="#7E7E7E"/>
</svg>
