<svg width="14" height="20" viewBox="0 0 14 20" fill="none" xmlns="http://www.w3.org/2000/svg">
<path d="M11.12 0H1.96234C0.878967 0 0 0.839842 0 1.875V18.125C0 19.1601 0.878967 20 1.96234 20H11.12C12.2033 20 13.0823 19.1601 13.0823 18.125V1.875C13.0823 0.839842 12.2033 0 11.12 0ZM6.54115 18.75C5.81753 18.75 5.23292 18.1914 5.23292 17.5C5.23292 16.8086 5.81753 16.25 6.54115 16.25C7.26476 16.25 7.84938 16.8086 7.84938 17.5C7.84938 18.1914 7.26476 18.75 6.54115 18.75ZM11.12 14.5312C11.12 14.789 10.8992 15 10.6294 15H2.45293C2.18311 15 1.96234 14.789 1.96234 14.5312V2.34374C1.96234 2.08593 2.18311 1.875 2.45293 1.875H10.6294C10.8992 1.875 11.12 2.08593 11.12 2.34374V14.5312Z" fill="#7E7E7E"/>
</svg>
