<svg width="18" height="18" viewBox="0 0 18 18" fill="none" xmlns="http://www.w3.org/2000/svg">
<path d="M17.5914 4.14926L15.6947 0.52478C15.5252 0.199417 15.2242 0 14.9027 0H3.09613C2.77466 0 2.47365 0.199417 2.30415 0.52478L0.407495 4.14926C-0.571518 6.02098 0.296443 8.62389 2.12588 8.92127C2.25739 8.94226 2.39182 8.95275 2.52625 8.95275C3.39129 8.95275 4.15697 8.49794 4.683 7.79474C5.20904 8.49794 5.97764 8.95275 6.83976 8.95275C7.70479 8.95275 8.47047 8.49794 8.99651 7.79474C9.52254 8.49794 10.2911 8.95275 11.1533 8.95275C12.0183 8.95275 12.784 8.49794 13.31 7.79474C13.839 8.49794 14.6046 8.95275 15.4668 8.95275C15.6041 8.95275 15.7356 8.94226 15.8671 8.92127C17.7024 8.62739 18.5733 6.02448 17.5914 4.14926ZM15.4726 10.0758C15.1804 10.0758 14.891 10.0233 14.6105 9.94284V13.4344H3.38837V9.94284C3.10782 10.0198 2.8185 10.0758 2.52625 10.0758C2.35091 10.0758 2.17264 10.0618 2.00022 10.0338C1.83656 10.0058 1.67583 9.96033 1.52094 9.90786V16.793C1.52094 17.4122 1.93885 17.9125 2.45612 17.9125H15.5486C16.0659 17.9125 16.4838 17.4122 16.4838 16.793V9.90786C16.326 9.96383 16.1681 10.0093 16.0045 10.0338C15.8262 10.0618 15.6509 10.0758 15.4726 10.0758Z" fill="#9356DC"/>
</svg>
